<svg xmlns="http://www.w3.org/2000/svg" viewBox="0 0 100 100">
	<path fill-rule="evenodd" fill="white" d="
		M12 0 L88 0 A11 11 0 0 1 100 12 L100 88 A11 11 0 0 1 88 100 L12 100 A11 11 0 0 1 0 88 L0 12 A11 11 0 0 1 12 0z
		M12 5 L88 5 A8 8 0 0 1 95 12   L95 88 A8 8 0 0 1 88 95   L12 95 A8 8 0 0 1 5 88   L5 12 A8 8 0 0 1 12 5z
		
		M15 25 A1 1 0 0 1 35 25 A1 1 0 0 1 15 25
		M15 75 A1 1 0 0 1 35 75 A1 1 0 0 1 15 75

		M85 25 A1 1 0 0 1 65 25 A1 1 0 0 1 85 25
		M85 75 A1 1 0 0 1 65 75 A1 1 0 0 1 85 75
	" />
</svg>